Coordinates
version=1
nRows=10
nColumns=22
inDegrees=yes

Units are S.I. units (second, meters, Newtons, ...)
If the header above contains a line with 'inDegrees', this indicates whether rotational values are in degrees (yes) or radians (no).

endheader
time	pelvis_tilt	pelvis_list	pelvis_rotation	pelvis_tx	pelvis_ty	pelvis_tz	hip_flexion_r	hip_adduction_r	hip_rotation_r	knee_angle_r	ankle_angle_r	subtalar_angle_r	hip_flexion_l	hip_adduction_l	hip_rotation_l	knee_angle_l	ankle_angle_l	subtalar_angle_l	lumbar_extension	lumbar_bending	lumbar_rotation
      3.82000000	      4.52228897	      1.92590214	    139.94146540	      0.53081098	      0.92792962	     -0.52272855	     24.01758130	      4.47538075	     10.40448947	    -25.87011519	      6.95728958	      8.75542564	      7.78098377	      4.26193672	      6.02836165	    -54.70560175	      1.08521160	     22.24970830	     -6.68119886	      7.53785462	     -3.42727388
      3.83000000	      4.59739004	      2.13582240	    140.48480220	      0.52575630	      0.92895349	     -0.52725346	     23.36717860	      4.50375646	      9.76758732	    -25.69476689	      7.25201612	      8.65026966	      9.99618474	      3.03364723	      4.04919726	    -57.71263790	      1.00270446	     22.12864739	     -6.95557648	      7.62240669	     -2.85172884
      3.84000000	      4.68361849	      2.28601715	    140.98100576	      0.52078054	      0.92987517	     -0.53175195	     22.78530003	      4.53964963	      9.25866800	    -25.55183582	      7.59911507	      8.47018036	     12.22642600	      1.81368388	      2.22914864	    -60.51951155	      0.95240458	     20.94895234	     -7.16561673	      7.64463371	     -2.24143308
      3.85000000	      4.72833956	      2.43846527	    141.42234092	      0.51577133	      0.93087584	     -0.53625318	     22.15431707	      4.58376860	      8.84219178	    -25.38830264	      7.92901221	      8.28394687	     14.34156529	      0.60533718	      0.55371670	    -63.06000452	      0.94491717	     18.90268811	     -7.39963862	      7.62889911	     -1.56571977
      3.86000000	      4.70089044	      2.60577448	    141.82219432	      0.51067472	      0.93202118	     -0.54073737	     21.42852969	      4.62006919	      8.51983357	    -25.19272421	      8.25406878	      8.09650336	     16.29163579	     -0.55812907	     -0.97316348	    -65.30608922	      1.00869420	     16.33640819	     -7.69287484	      7.57200569	     -0.87077424
      3.87000000	      4.68085975	      2.72320268	    142.21435871	      0.50548608	      0.93312855	     -0.54512073	     20.72515388	      4.62570433	      8.22973504	    -24.96954251	      8.60285951	      7.89971621	     18.21544932	     -1.64645821	     -2.32317178	    -67.28581357	      1.06880365	     13.63384714	     -7.92108651	      7.47909280	     -0.19100291
      3.88000000	      4.59357673	      2.84492873	    142.60252121	      0.50012220	      0.93438417	     -0.54937836	     19.91465073	      4.58649940	      7.96252360	    -24.67018940	      8.93411917	      7.69827879	     19.97568085	     -2.63191127	     -3.50894863	    -68.93948611	      1.17353692	     10.86630215	     -8.19368885	      7.35559497	      0.49082882
      3.89000000	      4.47561652	      2.94842365	    143.00504445	      0.49460587	      0.93568098	     -0.55348068	     19.06096708	      4.50393108	      7.69209880	    -24.32492553	      9.26135158	      7.49192417	     21.63342570	     -3.51110462	     -4.53425279	    -70.28403721	      1.30359572	      8.28601749	     -8.46232938	      7.20834659	      1.12182976
      3.90000000	      4.33271369	      3.03540612	    143.43210782	      0.48892200	      0.93700393	     -0.55740908	     18.16292205	      4.37743552	      7.39680634	    -23.92431588	      9.58267926	      7.28267133	     23.18956856	     -4.27243095	     -5.39595738	    -71.31399510	      1.45646082	      6.01087984	     -8.72170399	      7.04443614	      1.71385610
      3.91000000	      4.16357056	      3.09896243	    143.89373567	      0.48305047	      0.93833429	     -0.56115325	     17.23089559	      4.19862069	      7.05869712	    -23.48511580	      9.90207812	      7.06976222	     24.63992112	     -4.90534645	     -6.11362555	    -72.02038088	      1.62585210	      4.09922730	     -8.96634646	      6.85869503	      2.24727928
